<svg width="21" height="21" viewBox="0 0 21 21" fill="none" xmlns="http://www.w3.org/2000/svg">
<path d="M16.5396 0.654053H4.45923C2.36033 0.654053 0.654053 2.36141 0.654053 4.45923V16.5408C0.654053 18.6397 2.36141 20.346 4.45923 20.346H16.5408C18.6397 20.346 20.346 18.6387 20.346 16.5408V4.45923C20.3459 2.36141 18.6385 0.654053 16.5396 0.654053ZM17.7384 2.8558L18.1694 2.85472V6.12285L14.8772 6.13378L14.8663 2.86565L17.7384 2.8558ZM10.5 7.20558C13.2311 7.20558 13.7944 9.76932 13.7944 10.501C13.7944 12.3155 12.3156 13.7942 10.5 13.7942C8.68334 13.7942 7.2057 12.3155 7.2057 10.501C7.2045 9.76932 7.76893 7.20558 10.5 7.20558ZM18.188 16.3023C18.188 17.3425 17.3425 18.1891 16.3002 18.1891H4.66263C3.62135 18.1891 2.77482 17.3436 2.77482 16.3023V8.30814H5.50916C5.25542 8.93264 5.11209 9.78578 5.11209 10.5011C5.11209 13.4696 7.52709 15.8857 10.4967 15.8857C13.4662 15.8857 15.88 13.4696 15.88 10.5011C15.88 9.78578 15.7367 8.93264 15.484 8.30814H18.1856V16.3023H18.188Z" fill="white"/>
</svg>
