<svg width="24" height="14" viewBox="0 0 24 14" fill="none" xmlns="http://www.w3.org/2000/svg">
<path fill-rule="evenodd" clip-rule="evenodd" d="M11.8391 13.1753H13.2126C13.2126 13.1753 13.6275 13.1297 13.8393 12.9014C14.0343 12.6918 14.0281 12.2981 14.0281 12.2981C14.0281 12.2981 14.0012 10.4551 14.8566 10.1837C15.6998 9.91631 16.7826 11.9649 17.9303 12.7526C18.7982 13.3487 19.4576 13.218 19.4576 13.218L22.5263 13.1753C22.5263 13.1753 24.1316 13.0764 23.3705 11.8142C23.3081 11.711 22.9272 10.8806 21.0888 9.17417C19.1647 7.38824 19.4224 7.6771 21.7402 4.58782C23.1518 2.70643 23.7161 1.55781 23.5399 1.06586C23.3717 0.597307 22.3335 0.721153 22.3335 0.721153L18.8783 0.742678C18.8783 0.742678 18.6222 0.707738 18.4322 0.82129C18.2466 0.932657 18.1272 1.1922 18.1272 1.1922C18.1272 1.1922 17.5803 2.64809 16.8509 3.88624C15.3124 6.49885 14.6972 6.63674 14.4458 6.47452C13.8609 6.09643 14.0069 4.95562 14.0069 4.14516C14.0069 1.61334 14.3909 0.557689 13.2591 0.284418C12.8835 0.193639 12.6071 0.133744 11.6466 0.124073C10.4138 0.111283 9.37029 0.127816 8.77945 0.41731C8.38639 0.609785 8.08317 1.03872 8.26784 1.06337C8.49619 1.09394 9.01341 1.20281 9.28762 1.57622C9.64169 2.05788 9.62921 3.13973 9.62921 3.13973C9.62921 3.13973 9.83261 6.12014 9.15411 6.49043C8.68836 6.74436 8.04948 6.22589 6.67781 3.85567C5.97498 2.64154 5.44435 1.29952 5.44435 1.29952C5.44435 1.29952 5.34203 1.0487 5.15953 0.914564C4.93805 0.752036 4.62859 0.700253 4.62859 0.700253L1.34527 0.721776C1.34527 0.721776 0.852384 0.735503 0.67145 0.949816C0.510482 1.14042 0.65866 1.53473 0.65866 1.53473C0.65866 1.53473 3.22916 7.54858 6.13969 10.5792C8.80846 13.3578 11.8391 13.1753 11.8391 13.1753Z" fill="white"/>
</svg>
