<svg width="21" height="21" viewBox="0 0 21 21" fill="none" xmlns="http://www.w3.org/2000/svg">
<path d="M10.0779 8.21979C10.6313 8.21979 11.0646 8.04366 11.3817 7.79328C11.6967 7.5417 11.8543 7.19942 11.8543 6.75969V4.10621C11.8543 3.71574 11.6935 3.39304 11.373 3.14482C11.0503 2.89649 10.6379 2.77298 10.1326 2.77298C9.5803 2.77298 9.13842 2.89 8.81139 3.12512C8.48327 3.36132 8.31916 3.67634 8.31916 4.07557V6.73771C8.31916 7.17515 8.47883 7.5208 8.79817 7.78007C9.11751 8.03934 9.54534 8.21979 10.0779 8.21979ZM9.49945 4.20473C9.49945 4.10405 9.55195 4.02319 9.65587 3.95867C9.76088 3.89632 9.89652 3.86568 10.0628 3.86568C10.2443 3.86568 10.3909 3.89632 10.5014 3.95867C10.6131 4.02319 10.6677 4.10417 10.6677 4.20473V6.72689C10.6677 6.8516 10.6131 6.95 10.5036 7.02112C10.3943 7.09117 10.2477 7.12721 10.0628 7.12721C9.88234 7.12721 9.74238 7.09333 9.64494 7.02221C9.5487 6.95324 9.49945 6.85485 9.49945 6.72689V4.20473ZM13.7399 8.21655C13.9345 8.21655 14.1325 8.10494 14.3382 7.99344C14.5461 7.87967 14.7439 7.71339 14.9344 7.49689V8.08643H15.968V2.76529H14.9344V6.80451C14.8381 6.91936 14.731 7.01452 14.6161 7.08997C14.4991 7.16434 14.4029 7.20266 14.3274 7.20266C14.2301 7.20266 14.159 7.17527 14.1174 7.11736C14.0737 7.06161 14.0496 6.97078 14.0496 6.84608V2.76637H13.0182V7.21251C13.0182 7.52969 13.0806 7.76709 13.1997 7.9246C13.321 8.08307 13.5003 8.21655 13.7399 8.21655ZM16.7455 10.4161H4.25483C2.26863 10.4161 0.659668 11.9638 0.659668 13.8702V16.7906C0.659668 18.6981 2.26863 20.2458 4.25483 20.2458H16.7454C18.7305 20.2458 20.3406 18.6981 20.3406 16.7906V13.8702C20.3407 11.9637 18.7307 10.4161 16.7455 10.4161ZM6.11309 13.3802H5.00849V17.9543H3.93994V13.3802H2.83522V12.6003H6.11321C6.11309 12.6003 6.11309 13.3802 6.11309 13.3802ZM9.4097 18.0177H8.25801V17.543C8.04367 17.7181 7.82381 17.8525 7.59193 17.9423C7.3633 18.0363 7.14019 18.0811 6.9237 18.0811C6.65686 18.0811 6.45778 18.0166 6.32214 17.8865C6.18866 17.7586 6.11982 17.5661 6.11982 17.309V13.6975H7.27151V17.0104C7.27151 17.1133 7.29554 17.1855 7.34155 17.2314C7.39189 17.2783 7.47167 17.2991 7.57896 17.2991C7.6621 17.2991 7.77143 17.2696 7.90046 17.2083C8.03058 17.1481 8.14988 17.0716 8.25813 16.9764V13.6963H9.40982C9.4097 13.6963 9.4097 18.0177 9.4097 18.0177ZM13.7693 17.1952C13.7693 17.4785 13.6796 17.6939 13.5014 17.846C13.3253 17.998 13.0651 18.0724 12.7293 18.0724C12.5051 18.0724 12.306 18.0439 12.1331 17.986C11.9593 17.9281 11.7951 17.8383 11.6464 17.7147V18.021H10.4969V12.6003H11.6464V14.3471C11.8018 14.2268 11.9647 14.1328 12.1342 14.0693C12.308 14.0048 12.4831 13.9742 12.6592 13.9742C13.019 13.9742 13.2936 14.0584 13.4828 14.2279C13.6742 14.3985 13.7693 14.649 13.7693 14.976C13.7693 14.9759 13.7693 17.1952 13.7693 17.1952ZM18.151 15.9756H16.0291V16.7566C16.0291 16.9743 16.0641 17.1252 16.1374 17.2105C16.2117 17.2947 16.3375 17.3363 16.5136 17.3363C16.6996 17.3363 16.8265 17.3002 16.9009 17.2291C16.9731 17.1569 17.0125 17.0005 17.0125 16.7555V16.5673H18.1532V16.7795C18.1532 17.2039 18.0165 17.5233 17.7343 17.7387C17.4565 17.9531 17.0408 18.0602 16.4885 18.0602C15.9909 18.0602 15.5994 17.9465 15.3139 17.719C15.0295 17.4938 14.8851 17.1788 14.8851 16.7806V14.919C14.8851 14.5613 15.0426 14.266 15.3576 14.0396C15.6716 13.8144 16.074 13.7017 16.5717 13.7017C17.0792 13.7017 17.4696 13.8067 17.7431 14.0156C18.0154 14.2246 18.1511 14.5263 18.1511 14.918C18.151 14.918 18.151 15.9756 18.151 15.9756ZM5.49411 8.23193H6.79899V5.05234L8.3182 0.567993H6.99146L6.18421 3.63273H6.10107L5.25455 0.567993H3.93874L5.49399 5.19567C5.49411 5.19567 5.49411 8.23193 5.49411 8.23193ZM12.1222 14.6084L11.8804 14.6478L11.6453 14.7693V17.2608C11.7372 17.3253 11.8279 17.3746 11.9155 17.4019L12.1901 17.4445C12.33 17.4445 12.4318 17.4171 12.4974 17.3592C12.5619 17.3035 12.5958 17.2115 12.5958 17.0858V15.0197C12.5958 14.8829 12.5575 14.7812 12.4766 14.7123C12.3935 14.6435 12.2764 14.6084 12.1222 14.6084Z" fill="white"/>
</svg>
