<svg width="17" height="19" viewBox="0 0 17 19" fill="none" xmlns="http://www.w3.org/2000/svg">
<path fill-rule="evenodd" clip-rule="evenodd" d="M12.5507 12.7743L16.7415 17.2127C17.0961 17.5882 17.0843 18.1869 16.7159 18.5479C16.5425 18.7179 16.314 18.8114 16.0732 18.8114C15.8189 18.8114 15.5815 18.7084 15.405 18.5218L11.1823 14.0497C9.98334 14.9077 8.58095 15.3597 7.10932 15.3597C3.1893 15.3597 0 12.112 0 8.12029C0 4.12853 3.1893 0.880859 7.10932 0.880859C11.0293 0.880859 14.2186 4.12853 14.2186 8.12029C14.2186 9.8288 13.6283 11.4699 12.5507 12.7743ZM12.3639 8.12651C12.3639 5.17597 10.0067 2.77563 7.10921 2.77563C4.2117 2.77563 1.85449 5.17597 1.85449 8.12651C1.85449 11.0771 4.2117 13.4774 7.10921 13.4774C10.0067 13.4774 12.3639 11.0771 12.3639 8.12651Z" fill="#D93C47"/>
</svg>
